<?xml version="1.0" encoding="UTF-8" standalone="no"?>
<svg
   xmlns:dc="http://purl.org/dc/elements/1.1/"
   xmlns:cc="http://creativecommons.org/ns#"
   xmlns:rdf="http://www.w3.org/1999/02/22-rdf-syntax-ns#"
   xmlns:svg="http://www.w3.org/2000/svg"
   xmlns="http://www.w3.org/2000/svg"
   xmlns:sodipodi="http://sodipodi.sourceforge.net/DTD/sodipodi-0.dtd"
   xmlns:inkscape="http://www.inkscape.org/namespaces/inkscape"
   version="1.1"
   x="0px"
   y="0px"
   viewBox="0 0 100 125"
   style="enable-background:new 0 0 100 100;"
   xml:space="preserve"
   id="svg3869"
   sodipodi:docname="face.svg"
   inkscape:version="0.92.2 5c3e80d, 2017-08-06"><metadata
     id="metadata3875"><rdf:RDF><cc:Work
         rdf:about=""><dc:format>image/svg+xml</dc:format><dc:type
           rdf:resource="http://purl.org/dc/dcmitype/StillImage" /></cc:Work></rdf:RDF></metadata><defs
     id="defs3873" /><sodipodi:namedview
     pagecolor="#ffffff"
     bordercolor="#666666"
     borderopacity="1"
     objecttolerance="10"
     gridtolerance="10"
     guidetolerance="10"
     inkscape:pageopacity="0"
     inkscape:pageshadow="2"
     inkscape:window-width="640"
     inkscape:window-height="480"
     id="namedview3871"
     showgrid="false"
     inkscape:zoom="1.888"
     inkscape:cx="50"
     inkscape:cy="62.5"
     inkscape:window-x="0"
     inkscape:window-y="29"
     inkscape:window-maximized="0"
     inkscape:current-layer="svg3869" /><g
     id="g3857"><path
       style=""
       d="M50.254,6c-24.262,0-44,19.739-44,44s19.738,44,44,44s44-19.738,44-44S74.516,6,50.254,6z"
       fill="none"
       id="path3853" /><path
       d="M50.254,4c-25.364,0-46,20.636-46,46c0,25.364,20.636,46,46,46s46-20.636,46-46C96.254,24.635,75.618,4,50.254,4z    M50.254,94c-24.262,0-44-19.738-44-44s19.738-44,44-44s44,19.739,44,44S74.516,94,50.254,94z"
       id="path3855" /></g><circle
     cx="31"
     cy="42.375"
     r="4.625"
     id="circle3859" /><circle
     cx="69"
     cy="42.375"
     r="4.625"
     id="circle3861" /><path
     d="M65,67H34c-0.552,0-1-0.447-1-1s0.448-1,1-1h31c0.553,0,1,0.447,1,1S65.553,67,65,67z"
     id="path3863" /></svg>