<?xml version="1.0" encoding="UTF-8" standalone="no"?>
<svg
   xmlns:dc="http://purl.org/dc/elements/1.1/"
   xmlns:cc="http://creativecommons.org/ns#"
   xmlns:rdf="http://www.w3.org/1999/02/22-rdf-syntax-ns#"
   xmlns:svg="http://www.w3.org/2000/svg"
   xmlns="http://www.w3.org/2000/svg"
   xmlns:sodipodi="http://sodipodi.sourceforge.net/DTD/sodipodi-0.dtd"
   xmlns:inkscape="http://www.inkscape.org/namespaces/inkscape"
   version="1.1"
   x="0px"
   y="0px"
   viewBox="0 0 100 125"
   enable-background="new 0 0 100 100"
   xml:space="preserve"
   id="svg3930"
   sodipodi:docname="hair.svg"
   inkscape:version="0.92.2 5c3e80d, 2017-08-06"><metadata
     id="metadata3936"><rdf:RDF><cc:Work
         rdf:about=""><dc:format>image/svg+xml</dc:format><dc:type
           rdf:resource="http://purl.org/dc/dcmitype/StillImage" /></cc:Work></rdf:RDF></metadata><defs
     id="defs3934" /><sodipodi:namedview
     pagecolor="#ffffff"
     bordercolor="#666666"
     borderopacity="1"
     objecttolerance="10"
     gridtolerance="10"
     guidetolerance="10"
     inkscape:pageopacity="0"
     inkscape:pageshadow="2"
     inkscape:window-width="640"
     inkscape:window-height="480"
     id="namedview3932"
     showgrid="false"
     inkscape:zoom="1.888"
     inkscape:cx="50"
     inkscape:cy="62.5"
     inkscape:window-x="0"
     inkscape:window-y="29"
     inkscape:window-maximized="0"
     inkscape:current-layer="svg3930" /><g
     id="g3924"><path
       fill="none"
       d="M80.734,48.068l-0.012-0.037c-0.687-2.478-1.378-4.402-1.455-4.613l-0.525-1.447l1.146,0.818   c0.128,0.006,0.393,0.01,0.939,0.01c3.488-0.007,6.108-2.016,7.665-3.653c-1.688,0.544-4.386,0.724-8.505-0.629   c-3.813-1.248-5.831-3.852-7.967-6.608c-2.409-3.107-5.139-6.629-11.061-9.083c-5.799-2.404-9.122-1.988-10.886-1.217l-3.215,1.405   l2.722-2.215c1.104-0.898,2.749-1.301,4.111-1.479c-2.18-0.554-5.886-0.974-10.572,0.51c-5.58,1.77-8.883,3.782-10.672,5.16   l-0.62-0.727l1.293-1.221c-0.833,0.364-1.847,0.831-2.98,1.403l-1.325,0.669l0.685-1.317c1.394-2.681,3.514-5.486,4.869-7.17   c-8.998,4.431-16.302,16.016-16.379,16.14l-1.247,2l0.369-2.328c0.522-3.296,1.461-6.435,2.054-8.229   C3.776,36.759,6.065,58.18,6.091,58.4c0.003,8.883,3.591,17.406,5.599,19.696c1.527,1.74,1.783,3.97,1.936,5.302   c0.021,0.185,0.045,0.392,0.071,0.569c0.293-0.543,0.755-1.987,0.782-5.725c0.082-1.116,0.255-2.062,0.513-2.842   c0.091-1.445,1.437-19.717,11.685-26.116c2.293-1.432,4.858-2.149,7.673-2.149c2.699,0,5.627,0.659,8.768,1.976   c0.105,0.045,10.297,4.368,18.126,5.047c6.055,0.524,11.213,5.121,12.544,11.178c0.606,2.755,0.783,5.309,0.477,6.833   c-1.303,6.522-0.121,10.79,0.692,12.14c0.091-0.837,0.307-2.132,0.83-3.354c1.078-2.532,2.107-3.274,2.935-3.87   c1.01-0.728,1.677-1.209,1.885-5.469c0.204-4.202,0.621-7.215,0.956-9.635c0.169-1.217,0.315-2.268,0.413-3.297l0.084-0.875   l0.689,0.546c1.661,1.315,3.895,2.136,6.658,2.453C87.189,59.286,83.579,55.776,80.734,48.068z"
       id="path3920" /><path
       d="M91.72,60.974c-0.059-0.019-5.911-1.93-10.081-13.218c-0.479-1.728-0.962-3.191-1.24-4.002   c0.124,0.001,0.266,0.001,0.43,0.001c6.412-0.013,9.976-5.945,10.124-6.197l-0.804-0.519c-0.021,0.032-2.301,3.051-9.864,0.568   c-3.534-1.158-5.377-3.534-7.509-6.285c-2.482-3.201-5.294-6.83-11.45-9.381c-2.291-0.95-4.365-1.545-6.214-1.784   c0.567-0.026,0.943-0.017,0.956-0.015l2.019,0.069l-1.774-0.967c-0.218-0.12-5.419-2.879-13.483-0.326   c-2.84,0.9-5.108,1.866-6.9,2.785l1.33-1.256l-2.125,0.747c-0.078,0.027-1.66,0.588-4.045,1.719   c2.153-3.613,5.255-7.165,5.291-7.204l1.244-1.417l-1.769,0.653C27.96,17.861,21.227,26.43,18.485,30.319   c0.858-3.992,2.1-7.269,2.114-7.307l0.582-1.524l-1.313,0.968c-17.236,12.712-14.755,35.823-14.731,36   c0,8.768,3.449,17.553,5.833,20.273c1.33,1.515,1.556,3.48,1.705,4.779c0.109,0.957,0.196,1.713,0.856,1.713h0.001   c0.086-0.001,0.351-0.02,0.633-0.289c0.818-0.783,1.245-3.031,1.27-6.65c0.076-1.018,0.244-1.93,0.484-2.636l0.024-0.127   c0.011-0.191,1.217-19.166,11.242-25.423c4.216-2.631,9.451-2.665,15.561-0.103c0.103,0.044,10.434,4.427,18.416,5.119   c5.642,0.489,10.449,4.778,11.692,10.431c0.578,2.631,0.755,5.038,0.473,6.44c-1.546,7.735,0.193,12.365,1.276,13.396   c0.269,0.256,0.513,0.33,0.704,0.33c0.067,0,0.129-0.009,0.182-0.023l0.355-0.09l0.006-0.366c0-0.021,0.041-2.083,0.817-3.896   c0.974-2.288,1.845-2.916,2.614-3.469c1.273-0.917,2.063-1.707,2.282-6.199c0.203-4.16,0.617-7.149,0.949-9.551   c0.125-0.906,0.238-1.722,0.33-2.509c2.187,1.456,5.119,2.23,8.727,2.305l3.43,0.07L91.72,60.974z M82.751,58.356l-0.689-0.546   l-0.084,0.875c-0.098,1.029-0.244,2.08-0.413,3.297c-0.334,2.42-0.752,5.433-0.956,9.635c-0.208,4.26-0.875,4.741-1.885,5.469   c-0.828,0.596-1.857,1.338-2.935,3.87c-0.522,1.221-0.739,2.516-0.83,3.354c-0.814-1.35-1.996-5.618-0.692-12.14   c0.307-1.524,0.129-4.079-0.477-6.833c-1.332-6.058-6.489-10.654-12.544-11.178c-7.828-0.678-18.021-5.002-18.126-5.047   c-3.141-1.318-6.07-1.976-8.768-1.976c-2.815,0-5.38,0.717-7.673,2.149C16.429,55.683,15.083,73.955,14.992,75.4   c-0.258,0.78-0.431,1.727-0.513,2.842c-0.027,3.738-0.489,5.182-0.782,5.725c-0.026-0.178-0.049-0.384-0.071-0.569   c-0.153-1.332-0.409-3.562-1.936-5.302C9.682,75.807,6.094,67.283,6.091,58.4C6.065,58.18,3.776,36.759,19.167,24.209   c-0.592,1.794-1.531,4.934-2.054,8.229l-0.369,2.328l1.247-2c0.078-0.124,7.381-11.709,16.379-16.14   c-1.355,1.684-3.475,4.489-4.869,7.17l-0.685,1.317l1.325-0.669c1.133-0.572,2.147-1.039,2.98-1.403l-1.293,1.221l0.62,0.727   c1.789-1.377,5.092-3.39,10.672-5.16c4.686-1.484,8.392-1.064,10.572-0.51c-1.362,0.178-3.008,0.581-4.111,1.479l-2.722,2.215   l3.215-1.405c1.764-0.772,5.087-1.188,10.886,1.217c5.921,2.455,8.652,5.976,11.061,9.083c2.136,2.757,4.154,5.36,7.967,6.608   c4.119,1.353,6.817,1.173,8.505,0.629c-1.557,1.636-4.177,3.645-7.665,3.653c-0.546,0-0.811-0.005-0.939-0.01l-1.146-0.818   l0.525,1.447c0.077,0.211,0.768,2.135,1.455,4.613l0.012,0.037c2.844,7.709,6.455,11.219,8.674,12.742   C86.646,60.492,84.412,59.671,82.751,58.356z"
       id="path3922" /></g></svg>